 http://www.hotimg.com/direct/TadhrUd.jpg

Screens:
 
http://www.hotimg.com/direct/pdFfuwK.jpg
 
http://www.hotimg.com/direct/QunGNyx.jpg
 
http://www.hotimg.com/direct/vr4JChy.jpg
 
http://www.hotimg.com/direct/ExnWwY3.jpg

Alternative:
 
http://www.postimg.com/image/58000/photo-57090.jpg
 
http://www.postimg.com/image/58000/photo-57091.jpg
 
http://www.postimg.com/image/58000/photo-57092.jpg
 
http://www.postimg.com/image/58000/photo-57093.jpg

ScreenCaps:
 
http://www.postimg.com/image/58000/photo-57097.jpg

Johnny English Reborn (2011) DVDRip XviD-MAX
Format/Info                      : Audio Video Interleave
Format profile                   : OpenDML
File size                        : 1.45 GiB
Duration                         : 1h 37mn
Overall bit rate                 : 2 134 Kbps
Writing application              : VirtualDubMod 1.5.10.2 (build 2542/release)
Writing library                  : VirtualDubMod build 2542/release
Original source form             : MAX TORRENTZ
Copyright                        : SIGISMUNT

Video
ID                               : 0
Format                           : MPEG-4 Visual
Format profile                   : AdvancedSimple@L5
Format settings, BVOP            : Yes
Format settings, QPel            : No
Format settings, GMC             : No warppoints
Format settings, Matrix          : Custom
Codec ID                         : DIVX
Codec ID/Info                    : Project Mayo
Codec ID/Hint                    : DivX 4
Duration                         : 1h 37mn
Bit rate                         : 1 745 Kbps
Width                            : 720 pixels
Height                           : 304 pixels
Display aspect ratio             : 2.35:1
Frame rate                       : 25.000 fps
Resolution                       : 24 bits
Colorimetry                      : 4:2:0
Scan type                        : Progressive
Bits/(Pixel*Frame)               : 0.319
Stream size                      : 1.19 GiB (82%)
Writing library                  : XviD 1.2.1 (UTC 2008-12-04)

Audio
ID                               : 1
Format                           : AC-3
Format/Info                      : Audio Coding 3
Codec ID                         : 2000
Duration                         : 1h 37mn
Bit rate mode                    : Constant
Bit rate                         : 384 Kbps
Channel(s)                       : 6 channels
Channel positions                : Front: L C R, Surround: L R, LFE
Sampling rate                    : 44.1 KHz
Stream size                      : 267 MiB (18%)
Alignment                        : Aligned on interleaves
Interleave, duration             : 70 ms (1.74 video frames)
Interleave, preload duration     : 208 ms
 
http://www.imdb.com/title/tt1634122/

Source: DVD (perfect a/v/sync quality,sample included)
This torrent is not seedbox supported,please seed it to the MAX

Uploader Note: Make sure you will watch it with vlc-perfect play/in other
stupid players it may have some jerky movement scenes as the source file was
the same,enjoy it

Note:If you have something to offer as early releases,seedboxes,links,accounts,etc
please contact us on piratepedia[@]msn/gmail.com or our website torentz 3xforum ro

Johnny English Reborn (2011) DVDRip XviD-MAX Torrent Free Download
 
http://thepiratebay.org/user/extremezone/0/7

How To Get Your Maxspeed (uTorrent)

Torrent Client - Preferences - Bandwidth - Number of connections - Set aprox. 500 for each 
Torrent Client - Preferences - BiTorrent - Protocol Encryption - Forced
Bandwidth Allocation - High (Set download/upload limit - Unlimited)
Stop Other Active Torrents - Start downloading and wait for connections.
Enjoy and Seed for at least 1:1 ratio. Don't forget to say thanks/leave reviews.
Before downloading you should check/google search sample "release name""sample".
Greets to all actual/future p2p/scene QUALITY groups and affiliate websites.
Don't trust IMDb robot or bad ratings,always watch some trailers first.
Ignore stupid comments/fake/mislabeled/no-DVDrips/CAM/TS/RAR uploads.
Please spread this release/torrent to your friends/forums/etc.
If you need translation subs visit some subtitles sites.
Report if you see online streaming or other spam links.
Recommended movie player VLC PLAYER.